<?xml version="1.0" encoding="utf-8"?>
<!-- Generator: Adobe Illustrator 24.0.1, SVG Export Plug-In . SVG Version: 6.00 Build 0)  -->
<svg version="1.1" id="Calque_1" xmlns="http://www.w3.org/2000/svg" xmlns:xlink="http://www.w3.org/1999/xlink" x="0px" y="0px"
	 viewBox="0 0 50 50" style="enable-background:new 0 0 50 50;" xml:space="preserve">
<style type="text/css">
	.st0{fill:url(#SVGID_1_);}
	.st1{fill:url(#SVGID_2_);}
	.st2{fill:url(#SVGID_3_);}
	.st3{fill:url(#SVGID_4_);}
	.st4{opacity:0.7;}
	.st5{clip-path:url(#SVGID_6_);}
	.st6{clip-path:url(#SVGID_8_);}
</style>
<g>
	<image style="overflow:visible;" width="50" height="9" xlink:href="278DFDBA.png"  transform="matrix(1 0 0 1 0 33)">
	</image>
	<linearGradient id="SVGID_1_" gradientUnits="userSpaceOnUse" x1="33.8172" y1="11.7299" x2="33.8172" y2="8.6536">
		<stop  offset="0" style="stop-color:#826C4B"/>
		<stop  offset="0.2925" style="stop-color:#89724F"/>
		<stop  offset="0.7319" style="stop-color:#9E845C"/>
		<stop  offset="1" style="stop-color:#AE9165"/>
	</linearGradient>
	<polygon class="st0" points="32,11.7 35.6,11.7 35.6,8.7 32,9.2 	"/>
	<linearGradient id="SVGID_2_" gradientUnits="userSpaceOnUse" x1="13.8827" y1="11.897" x2="13.8827" y2="8.1784">
		<stop  offset="0" style="stop-color:#6E5736"/>
		<stop  offset="0.6437" style="stop-color:#8E7146"/>
		<stop  offset="1" style="stop-color:#9A7B4C"/>
	</linearGradient>
	<polygon class="st1" points="12.7,11.9 15.1,11.9 15.1,8.3 12.7,8.2 	"/>
	<image style="overflow:visible;" width="26" height="2" xlink:href="278DFDB9.png"  transform="matrix(1 0 0 1 12 8)">
	</image>
	<linearGradient id="SVGID_3_" gradientUnits="userSpaceOnUse" x1="13.8703" y1="13.7148" x2="13.8703" y2="8.9315">
		<stop  offset="0" style="stop-color:#BD9D6D"/>
		<stop  offset="5.692261e-02" style="stop-color:#C2A170"/>
		<stop  offset="0.3888" style="stop-color:#D7B37D"/>
		<stop  offset="0.7085" style="stop-color:#E5BE84"/>
		<stop  offset="1" style="stop-color:#E9C287"/>
	</linearGradient>
	<polygon class="st2" points="12.7,13.7 15,13.7 15.1,8.9 12.7,9.9 	"/>
	
		<linearGradient id="SVGID_4_" gradientUnits="userSpaceOnUse" x1="481.8597" y1="13.9804" x2="481.8597" y2="9.1968" gradientTransform="matrix(-1 0 0 1 516.5762 0)">
		<stop  offset="0" style="stop-color:#BD9D6D"/>
		<stop  offset="0.3067" style="stop-color:#C6A472"/>
		<stop  offset="0.8007" style="stop-color:#DDB880"/>
		<stop  offset="1" style="stop-color:#E9C287"/>
	</linearGradient>
	<polygon class="st3" points="34.5,14 32.1,14 32.1,9.2 37.4,9.9 	"/>
	<image style="overflow:visible;" width="26" height="32" xlink:href="278DFDA8.png"  transform="matrix(1 0 0 1 12 9)">
	</image>
	<g class="st4">
		<defs>
			<path id="SVGID_5_" class="st4" d="M31.8,11.7c-0.1-0.1-0.1,0-0.2-0.1c-0.2-0.1-0.5-0.3-0.5-0.1c0,0.1-0.1,0.3,0,0.3
				c-0.9,1.5-2.7,6.9-3.9,6.9c-2.2,0-8.3-7.2-8.3-7.2c-0.2,0-0.4-0.2-0.4,0c0,0.2-0.2,0.4-0.1,0.5c-0.5,1.4-1.4,4.2-1.4,5.5
				c0,4.2,3.8,7.7,8.6,7.7s8.6-3.4,8.6-7.7C34.1,14.7,34.4,13,31.8,11.7z"/>
		</defs>
		<clipPath id="SVGID_6_">
			<use xlink:href="#SVGID_5_"  style="overflow:visible;"/>
		</clipPath>
		<g class="st5">
			<image style="overflow:visible;" width="15" height="14" xlink:href="278DFDAB.png"  transform="matrix(1 0 0 1 17 10)">
			</image>
		</g>
	</g>
	<g>
		<defs>
			<path id="SVGID_7_" d="M31.8,11.7c-0.1-0.1-0.1-0.1-0.3-0.2c-0.2-0.2-0.5-0.2-0.5,0c0,0.1,0,0.2,0.1,0.2c-0.9,1.5-2.8,6.9-4,6.9
				c-2.2,0-8.1-7.3-8.2-7.3c-0.2,0-0.5-0.2-0.6,0c-0.1,0.2,0.1,0.3,0.3,0.4c-0.5,1.4-1.7,4.3-1.7,5.6c0,4.2,3.8,7.7,8.6,7.7
				s8.6-3.4,8.6-7.7C34.1,14.7,34.4,13,31.8,11.7z"/>
		</defs>
		<clipPath id="SVGID_8_">
			<use xlink:href="#SVGID_7_"  style="overflow:visible;"/>
		</clipPath>
		<g class="st6">
			<image style="overflow:visible;" width="14" height="12" xlink:href="278DFDAE.png"  transform="matrix(1 0 0 1 18 11)">
			</image>
		</g>
	</g>
</g>
</svg>
