<?xml version="1.0" encoding="utf-8"?>
<!-- Generator: Adobe Illustrator 24.0.1, SVG Export Plug-In . SVG Version: 6.00 Build 0)  -->
<svg version="1.1" xmlns="http://www.w3.org/2000/svg" xmlns:xlink="http://www.w3.org/1999/xlink" x="0px" y="0px"
	 viewBox="0 0 127.1 159.8" style="enable-background:new 0 0 127.1 159.8;" xml:space="preserve">
<style type="text/css">
	.st0{display:none;}
	.st1{display:inline;fill:#A9C943;}
	.st2{fill:#0F3427;}
</style>
<g id="Calque_1" class="st0">
	<path class="st1" d="M5.4,1.5C7.3-9.4,9.2-20.3,13-30.7c0.8-2.3,1.7-4.5,2.5-6.8c1.3,1.4,0.5,3.1,0.6,4.7c0.1,1.4,0.8,1.6,1.9,1.5
		c0.9-0.1,2.5,0.6,2.5-1.1c-0.1-4.4,0.6-8.8-0.4-13.2c0.6-1.9,1.6-3.6,2.8-5.2c0,4,1.5,7,5.6,8.1c-1.9,4.1-4.3,7.9-5.7,12.3
		c-0.7,2.2-1.1,4.5-2.6,6.4c-1.7,0.1-2.5-1.1-3.6-2.2c1,2.5,0.8,4.8-0.1,7.1c0.8,0.1,1.7,0.2,2.5,0.3C17.4-12.3,16-5.6,14.9,1
		c-0.2,1.5-0.5,2.8,1.9,2.8c21.2-0.1,42.4-0.1,63.6,0c1.9,0,2.4-0.7,2.1-2.4c-1.1-6.8-2.2-13.5-4.2-20.1c0-0.9,0.2-1.3,1.1-0.6
		c1.4,1,3,0.2,4.5,0.3c0-1,0-2,0-3c0-0.7,0.2-1.5,0.4-2.2c-2.5,0.2-5.7-1.6-6.2,3.1c-0.7-1.6-1.3-2.9-1.9-4.2
		c-1-4.9-3.5-9.3-5.4-13.9c0.6-3.8-1.1-6.5-4.3-7.2c-2.4-3-4.9-6-8-8.3c-4.7-3.5-11.8-5.5-18-0.8c-0.5-0.1-0.8,0.1-0.9,0.5
		c-0.7,0.1-1.3,0.5-1.6,1.2c-1.6,0.5-2.8-0.7-4-1.2c-3-1.2-5.6,0.5-8.4,0.5c6.7-8.1,14.6-13.8,25.8-12.7c6.9,0.7,12.3,4.2,17.1,8.9
		c3.4,3.4,6.1,7.2,8.5,11.3c-6.3,4.2-4.9,13.3,1.7,15.4c1.8,0.6,3.6,0.4,5.4,0.2c3.7,10.3,6.1,20.9,7.4,31.8
		c0.3,2.8,1.3,3.4,3.9,3.4c13.1-0.1,26.2,0.1,39.2-0.2c3.2-0.1,3.9,1.1,4,3.9c0.6,12.3,1.5,24.5,2.2,36.8c0.6,9.8,1.1,19.5,1.7,29.3
		c0.2,3,0.5,3.1,3.2,1.7c9-4.6,17.8-9.4,26.1-15c0.4-0.3,0.8-0.6,1.1-0.9c0.4,0,0.8,0.1,1.2,0.1c0,0,0.1,0.1,0.1,0.1
		c0.1,1.1,0.3,2.1,1.1,2.9c0.2,0.8,0.5,1.6,0.7,2.3c-0.2,0.5,0,0.9,0.4,1.2c0.1,0.4,0.2,0.8,0.2,1.2c-0.2,0.7,0.1,1.2,0.7,1.6
		c0.1,0.5,0.1,0.9,0.2,1.4c1.3,7.4,2.6,14.8,4,22.1c0,0.4,0.1,0.8,0.1,1.1c-0.1,2.3-0.2,4.7,0.6,7c-0.1,4.3-0.1,8.5-0.2,12.8
		c-0.7,1.5-0.5,3.1-0.4,4.7c-0.1,0.6-0.1,1.1-0.2,1.7c-0.6,0.7-0.5,1.5-0.3,2.4c-0.1,0.6-0.2,1.1-0.3,1.7c-0.2,0.3-0.4,0.7-0.4,1
		c-4.2,20-13.7,36.5-30.6,48.5c-0.9,0.6-1.3,1.3-1.2,2.4c0.3,5,0.3,10,1.2,15c0,0.8,0.1,1.6,0.1,2.4c0,1.3-0.1,2.7,0,4
		c0.6,9.3,1.1,18.5,1.7,27.8c0.2,3.8,0.2,3.8-3.7,3.8c-66,0-132,0-197.9,0c-0.9,0-1.7,0-2.6,0c-1.7,0.1-2.2-0.6-2-2.3
		c0.5-3.6,0.6-7.1,0.4-10.7c0-0.8,0.1-1.6,0.1-2.4c1.3-11.8,1.8-23.6,2.2-35.5c0-0.6,0-1.2,0.1-1.8c0.9-6,1.3-12,1.1-18
		c0-0.4,0-0.8,0.1-1.2c1.3-11.8,1.8-23.6,2.2-35.4c0-1.2,0.1-2.4,0.1-3.5c1-6.4,1.2-12.9,1.4-19.3c0.2-5.2,1.2-10.4,0.7-15.6
		c0-0.3,0-0.5,0-0.8c1.3-1,0.8-2.5,0.8-3.8c0.1-8.9,1-17.7,1.4-26.6c0.4-9.2,1.5-18.3,1.4-27.5c0-0.4,0-0.8,0-1.2
		c0.8-5.4,1.2-10.9,1.2-16.4c0-2.1,0.7-2.9,2.9-2.8c6.9,0.1,13.7,0.1,20.6,0c7,0,13.9-0.1,20.9-0.2C3.8,3.8,4.4,4,5,3.5
		C5.7,3,5.6,2.2,5.4,1.5z M1.9,70.2c-0.1-0.6-0.5-0.9-1.1-0.9c-0.2-0.1-0.3-0.2-0.5-0.3c-1-1.5-2.4-2.5-4.2-3
		c-0.5-0.9-1.1-1.6-2.2-1.7c-0.5-1-1.3-1.6-2.3-1.9C-8.6,62.3-8.8,62.1-9,62c-0.2-0.6-0.6-1-1.3-1c-0.8-1-1.8-1.8-2.9-2.4
		c-0.3-0.7-0.9-1.6-1.6-1.3c-1.1,0.5-1.5,1.8-1.5,3c-0.2,0.5-0.3,1-0.5,1.5c-2.1,3.1-3,6.6-3.9,10.2c-0.6,0.9-0.8,1.8-0.9,2.9
		c-1.3,1.9-1.4,4.2-1.6,6.4c-0.5,0.9-0.6,1.9-0.6,2.9c-0.6,1.9-1.4,3.8-0.8,5.8c0,0.8-0.1,1.6-0.1,2.4c-1,4.4-0.9,8.9,0,13.3
		c-0.1,1-0.2,2,0.3,2.9c0.5,5.3,1.9,10.3,4.7,14.9c0.1,1,0.5,1.8,1.1,2.5c-0.2,0.7,0.1,1.1,0.8,1.3c0.1,0.7,0.3,1.2,0.9,1.6
		c-0.1,0.7,0.3,1.1,0.8,1.4c0,0.2,0.1,0.3,0.2,0.4c0.3,1.3,0.9,2.4,2.1,3.1c0,0.5,0.3,0.8,0.7,1c0.1,1,0.8,1.5,1.6,1.9
		c1,1.7,2.4,3,4,4c0.5,1.1,1.3,1.9,2.5,2.2c0.2,0.5,0.6,0.7,1,0.7c6.6,5.5,14.4,8.4,22.8,10c0.5,0.4,1.1,0.5,1.8,0.4
		c1.7,0.7,3.4,1.2,5.2,1c0.6,0.1,1.2,0.1,1.8,0.2c1.9,0.5,4.3,1.8,5.5-0.3c1.8-3.1,2.8-6.7,4.2-10.1c0.6-0.5,0.9-1.2,1-2
		c0.8-0.5,1.3-1.1,1.4-2.1c0.2-0.1,0.3-0.3,0.3-0.5c1.3-1.8,2.7-3.7,4-5.5c0.7-1,0.8-1.9-0.6-2.5c-0.6-0.8-1.3-1.6-2.2-2.1
		c-0.7-1.3-1.6-2.3-3.1-2.8c-0.3-0.7-0.8-1.1-1.6-1.3c-0.2-0.6-0.6-1-1.4-1c-0.3-0.3-0.6-0.5-0.9-0.8c-0.4-0.8-1-1.5-2-1.5
		c-0.1-0.2-0.2-0.3-0.4-0.3c-0.3-0.6-0.7-1-1.3-0.9c-0.6-0.6-1.2-1.2-2.1-1.4c-0.3-0.6-0.7-1-1.4-0.9c-0.8-0.6-1.6-1.3-2.7-1.5
		c-0.3-0.6-0.7-0.9-1.4-0.9c-0.5-0.3-1-0.6-1.5-0.8c-0.3-0.6-0.7-0.9-1.4-0.9c-0.3-0.1-0.5-0.2-0.8-0.4c-0.5-0.8-1.1-1.4-2.1-1.4
		c-0.1-0.2-0.2-0.2-0.4-0.2c-1.6-1.6-3.4-2.9-5.4-3.9c-0.3-0.7-0.9-1-1.6-1.4c-0.9-1.4-2-2.8-3.6-3.4c-0.3-1.7-1.7-2.5-2.9-3.5
		c-0.3-0.8-0.7-1.6-1.6-2c-0.1-0.2-0.3-0.4-0.4-0.6c-0.3-0.9-0.7-1.7-1.7-2c0-0.5-0.2-1-0.8-1.1c-0.2-1-0.3-2-1.1-2.7
		c-0.9-1.7-1.7-3.3-2.6-5c2.3,1.7,3.5,4.5,6.1,6c0.3,1.2,1.2,1.8,2.3,2.3c0.3,0.7,0.8,1.3,1.5,1.6c0.5,1.5,1.5,2.5,3,2.8
		c0.2,0.2,0.4,0.4,0.6,0.6c0.3,0.8,1,0.9,1.7,1.1c0.1,0.2,0.2,0.2,0.4,0.2c0.5,0.8,1,1.5,2,1.5c0.1,0.2,0.2,0.2,0.4,0.2
		c0.2,0.6,0.7,1,1.3,0.9c0.6,0.7,1.2,1.3,2.2,1.4c0.2,0.6,0.6,1,1.3,0.9c0.1,0.2,0.3,0.2,0.4,0.2c0.2,0.6,0.6,1,1.3,0.9
		c1,0.8,2.1,1.6,3.4,2c3.2,2.7,7.1,4.3,10.6,6.5c4.8,3,9.7,5.9,14.5,8.9c0.2,0.1,0.4,0.2,0.6,0.4c0.7,1.3,1.4,1.5,2-0.1
		c1.6-1.6,3.2-3.2,4.9-4.9c1.4-0.4,2.3-1.3,2.9-2.6c0.6-0.5,1.5-0.6,1.7-1.5c1,0.1,1.5-0.5,1.8-1.4c0.2-0.1,0.4-0.3,0.6-0.4
		c1.4-0.3,2.7-0.9,1.4-2.4c-2.2-2.6-4.3-5.2-7.3-6.9l-0.1-0.1c0-0.6-0.3-1-1-0.8c-0.6-0.5-1.2-1.1-1.8-1.6c-0.7-1.4-2-2.1-3.4-2.6
		c-0.2-0.1-0.4-0.2-0.6-0.3c-0.7-1.4-2-2.1-3.5-2.5c-0.2-0.1-0.4-0.3-0.6-0.4c-1-1.3-2.4-2.3-4-2.6c-0.2-0.1-0.4-0.2-0.6-0.3
		c-2.2-2-4.8-3.3-7.5-4.4c-0.2-0.1-0.4-0.2-0.6-0.3c-0.5-0.9-1.3-1.4-2.4-1.3c-0.2-0.1-0.4-0.2-0.6-0.4c-2.4-2.1-5.2-3.7-8.1-5
		c-0.2-0.1-0.4-0.2-0.6-0.3C21,82.4,20.7,82,20,82.2c-0.3-0.2-0.6-0.3-0.9-0.5c-1-1.2-2.1-2.2-3.8-2.4c-0.2-0.1-0.4-0.2-0.6-0.3
		c-0.2-0.6-0.5-0.9-1.2-0.8c-0.2-0.1-0.4-0.3-0.6-0.4c-1.4-1.9-3.6-2.8-5.5-4.1c-1-0.7-1.3-2.7-3.2-2c-0.2-0.1-0.5-0.2-0.7-0.3
		C3.4,70.6,2.8,70.2,1.9,70.2L1.9,70.2z M63.7,120.9c-1,0.1-1.5,0.8-1.9,1.6c-1,0.4-1.7,1.1-2.2,2c-1.4,0.5-2.3,1.4-2.9,2.8l0,0
		c-1.1,0.4-1.9,1.2-2.2,2.3c-1.1,0.7-2,1.6-2.5,2.8c-3.4,3.2-6.1,6.9-8,11.2c-0.2,0.1-0.2,0.2-0.2,0.4c-1.8,1.8-2.7,4.2-3.7,6.4
		c-3.3,7.3-5.9,14.8-6.4,22.9c-0.4,1.3-0.4,2.7-0.3,4.1c-1.7,5-0.4,10,0,15.7c1.1-1.9,1.8-3.1,1.9-4.6c0.1-0.1,0.2-0.2,0.1-0.3
		c0.6-0.6,1-1.2,0.8-2.1c0.5-0.9,0.9-1.8,1.4-2.7c1.1-0.8,1.8-1.8,2-3.1c0.2-0.1,0.3-0.3,0.3-0.5c2.7-3.4,5.3-6.8,7.5-10.6l0,0
		c0.6-0.1,1-0.5,1-1.1c0.2-0.1,0.3-0.2,0.3-0.4c1.3-0.7,2.3-1.6,2.7-3.1c0.8-0.3,1-0.9,1.4-1.5c4.2-3.8,8.4-7.6,12.2-11.8
		c0.4-0.3,0.7-0.6,1.1-0.9c1.4-0.4,2.3-1.5,3.1-2.6c0.3-0.3,0.6-0.5,1-0.8c0.4-0.1,0.8-0.2,1.1-0.4c8.8-6.3,18.7-10.4,28.9-13.9
		c11.2-3.9,22.7-7.1,33.3-12.6c3-1.5,6.2-2.8,8.4-5.5c0.2,0,0.4-0.1,0.5-0.3c1,0,1.5-0.6,1.9-1.5c0.5-0.1,0.8-0.3,1-0.8
		c2-0.2,2.5-2.9,4.7-2.9c-0.1,0.5,0,0.8-0.2,1c-6.2,8.8-13.6,16.1-23.7,20.4c-6.6,2.8-13.6,4.7-20.2,7.3c-7.1,2.8-14.1,5.9-20,10.9
		c-0.5,0.1-0.9,0.3-1.1,0.8c-3.1,1.5-5.7,3.7-8,6.3l-0.1,0.2c-4.8,3.3-8.7,7.4-12.2,12c-0.5,0.5-0.9,1-1.4,1.6
		c-4.4,4.3-8,9.2-10.8,14.7c-0.7,0.8-1.4,1.6-1.5,2.7c-3.4,4.3-5.5,9.2-7.1,14.4c1.1,0.3,1.4-0.2,1.7-0.5c3.6-4,7.6-7.3,12.3-9.9
		c1.4-0.8,3.3-1.2,4-3.1c1.6-0.3,3-1.2,4.4-2c4.3-1.4,8.5-2.7,12.8-4.1c0.4-0.1,0.8-0.1,1.2-0.2c2,0.1,3.9-0.2,5.8-0.8
		c3.5,0,7,0,10.5,0c3.9,0.7,7.8,0.7,11.6,0c1.9,0.1,3.9,0.1,5.8-0.3c2,0.2,4-0.1,5.8-0.9c0.8-0.1,1.6-0.2,2.3-0.3
		c1.2,0,2.4-0.2,3.5-0.9c0.6-0.1,1.1-0.2,1.7-0.3c2.7-0.2,5.2-1.3,7.7-2.3c5.3-2.2,10.7-4.5,14.9-8.6l0.1-0.1c5-3,8.9-7.2,12.1-12.1
		c0.2-0.1,0.3-0.2,0.3-0.4c4.4-4.7,7.1-10.5,9.6-16.3c1.8-4.1,3.4-8.4,3.6-13c0.1-0.6,0.2-1.1,0.3-1.7c0.6-0.7,0.6-1.5,0.4-2.4
		c0.8-2.1,0.6-4.2,0.7-6.4c1.2-7,0.5-14-0.2-21c-0.4-8.7-2.1-17.2-4.7-25.6c-0.5-1.7-1.4-1.1-2.4-0.5c-11.3,6.7-23,12.8-34.8,18.5
		c-0.4-0.1-0.7,0.1-0.9,0.5l-0.2-0.1l-0.1,0.1c-1,0-1.8,0.4-2.4,1.2c-1.6,0.3-3.1,1.1-4.5,1.9c-0.4,0.1-0.8,0.1-1.1,0.2
		c-10.6,4.5-21.2,8.8-31.9,13c-5.2,2-10.4,4.1-14.9,7.5c-0.7,0-1.2,0.4-1.6,0.9c-0.8,0-1.3,0.3-1.7,1l-0.1,0
		c-1.7,0.5-3.2,1.2-4.3,2.7c-0.2,0-0.3,0.1-0.4,0.2c-1.8,0.7-3.4,1.8-4.6,3.4l0,0C65,119.3,64.3,119.9,63.7,120.9L63.7,120.9z
		 M94,37.5C94,37.5,94,37.5,94,37.5c0,0.9,0,1.7,0,2.6c0,3.2-1.6,5-4.3,5c-2.7,0-4.4-1.8-4.4-4.9c0-2,0-4.1-0.1-6.1
		c0-1.5-0.5-1.7-1.7-0.8c-4.2,3.1-5.1,9.4-2.1,13.8c3.2,4.6,9.5,5.7,14.1,2.4c4.4-3.1,5.6-9.4,2.5-13.7c-0.9-1.3-1.9-3.4-3.5-2.9
		c-1.4,0.4-0.3,2.6-0.5,4C94,37.2,94,37.4,94,37.5z M3.2,37.8c0-1,0-1.9,0-2.9c0-0.6,0.3-1.5-0.4-1.8C2,32.7,1.6,33.4,1,33.8
		c-3.7,3-4.6,8.3-2.1,12.6c2.2,3.7,5.5,5.4,9.8,5c4-0.4,6.9-2.6,8.3-6.4c1.5-3.8,0.8-7.4-2-10.5c-0.6-0.7-1.3-1.8-2.3-1.3
		c-0.8,0.4-0.4,1.6-0.4,2.4c-0.1,1.9,0,3.9-0.3,5.8c-0.4,2.5-2.2,3.9-4.7,3.7c-2.5-0.2-3.8-1.8-4-4.2C3.1,39.9,3.2,38.9,3.2,37.8z
		 M58.4,166.6c0.8,0.1,5.5-5,5.3-5.8c-0.2-0.7-0.8-1-1.3-0.6c-1.8,1.5-3.5,3-4.8,4.9C57.2,165.8,57.6,166.4,58.4,166.6z M75,150.1
		c-1.8,0.7-3.5,1.3-4.3,3.6C73,153.3,73.9,151.5,75,150.1z"/>
</g>
<g id="Calque_2">
	<path class="st2" d="M121.1,92.6c-1.2-18.1-3.7-21.2-3.7-21.2s0.2-2.4-2.7,0.3c0,0-7,4.6-11.3,6.4c0,0-2.3,1.9-1.7-2.6L100,45.3
		c0,0,0.1-2.8-3-1.9l-17.9,0.1c0,0-1.6,0.7-1.9-1.6s-2.7-21-12.6-29.6C54.6,3.5,43.3,14,40.2,24.6c-3.2,10.6-4.5,17.8-4.5,17.8
		s0.4,1.3-1.1,1l-20,0.1c0,0-1.7-0.5-1.4,3l-6.4,104c0,0-1.1,2.1,3.1,1.6l94.7,0c0,0,2.6,0.9,1.7-3l-1.3-22.2c0,0-0.3-1.4,1.9-2.5
		C108.9,123.2,122.2,110.7,121.1,92.6z M73.3,57.8c1.3-1.1,0.8,1.2,0.8,1.2c-0.4,4,0.9,4.1,2.1,4.5c1.2,0.4,2.6-1.9,2.2-3.7
		c-0.4-1.8-0.1-3.5,1.4-1.7c1.5,1.8,1.4,2.9,1.4,2.9c0,6.5-6.1,5.5-6.1,5.5C67.7,62.6,73.3,57.8,73.3,57.8z M40.3,42.2
		c3-20.8,12.2-33.3,21-26.9c8.8,6.4,11.4,26.3,11.4,26.3c0.8,2.1-0.9,1.9-0.9,1.9s-29.3,0-30.7,0C39.8,43.5,40.3,42.2,40.3,42.2z
		 M33.5,58c1.6-0.9,1,0.5,1,0.5c-0.4,4.5,1,4.7,1,4.7c2.2,1.2,3.8-0.9,3.3-3.7C38.5,56.7,40,58,40,58c2.3,1.6,1.4,5.1,1.4,5.1
		c-2.4,5.8-7.4,2.6-7.4,2.6C29,61.5,33.5,58,33.5,58z M47.8,116.9c0,0-16.4,0.2-24-14.8c-7.6-15,1.2-30.6,1.2-30.6s0.5-3.5,1.7-1.5
		c0,0,15.8,12.1,27.6,18.1c0,0,9.1,6.1,9.9,8.6c0,0-7.4,5.6-7,6.4c0.4,0.8-14.7-9-14.7-9s-8-4.3-10.8-8.9l-1.1-1l1.2,2.4
		c0,0,4.7,7.7,12.3,11.7c7.6,3.9,10.3,7.9,10.3,7.9s-4.7,6.3-5.4,10.4C49,116.3,48.5,117.2,47.8,116.9z M101.6,125
		c0,0-7.7,4.9-24.8,3.9c0,0-8.4-0.4-17,5.5c0,0-2.3,1.4-4.6,3.8l-0.6,0.6l0-1.7c0,0,7.7-16,19.3-23.4c0,0,3.8-3.3,8.9-5.2
		s14.6-4.9,18-8.7c3.4-3.8,4.4-5.2,4.4-5.2s0.9-1.5-2,0.8c-2.9,2.3-6.1,4.6-13.3,7c-7.1,2.4-19.6,5.7-26.8,13.2
		c-7.3,7.4-7.6,7.7-12,14.3c0,0-1.6,2.9-1.9,4.4s-0.2-0.6-0.2-0.6s-2.4-16,9.5-29.1c11.9-13.1,28.8-16.2,37.7-20.6
		s18.3-9.6,18.3-9.6s1.6-1.4,1.7,1.1C116.4,78.2,127.5,109.2,101.6,125z"/>
</g>
</svg>
